<svg xmlns="http://www.w3.org/2000/svg" version="1.1" xmlns:xlink="http://www.w3.org/1999/xlink" xmlns:svgjs="http://svgjs.dev/svgjs" width="2000" height="1500" viewBox="0 0 2000 1500"><rect width="2000" height="1500" fill="#000000"></rect><g transform="matrix(0.75,0,0,0.75,249.090909090909,282.7536437246963)"><svg viewBox="0 0 396 247" data-background-color="#ffffff" preserveAspectRatio="xMidYMid meet" height="1247" width="2000" xmlns="http://www.w3.org/2000/svg" xmlns:xlink="http://www.w3.org/1999/xlink"><g id="tight-bounds" transform="matrix(1,0,0,1,0.2400000000000091,-0.09999999999999432)"><svg viewBox="0 0 395.52 247.2" height="247.2" width="395.52"><g><svg></svg></g><g><svg viewBox="0 0 395.52 247.2" height="247.2" width="395.52"><g transform="matrix(1,0,0,1,75.54432,62.57810632911393)"><svg viewBox="0 0 244.43135999999998 122.04378734177213" height="122.04378734177213" width="244.43135999999998"><g><svg viewBox="0 0 244.43135999999998 122.04378734177213" height="122.04378734177213" width="244.43135999999998"><g><svg viewBox="0 0 244.43135999999998 122.04378734177213" height="122.04378734177213" width="244.43135999999998"><g><svg viewBox="0 0 244.43135999999998 122.04378734177213" height="122.04378734177213" width="244.43135999999998"><g id="textblocktransform"><svg viewBox="0 0 244.43135999999998 122.04378734177213" height="122.04378734177213" width="244.43135999999998" id="textblock"><g><svg viewBox="0 0 244.43135999999998 122.04378734177213" height="122.04378734177213" width="244.43135999999998"><g transform="matrix(1,0,0,1,0,0)"><svg width="244.43135999999998" viewBox="4.35 -34.95 71.10000000000001 35.5" height="122.04378734177213" data-palette-color="#000000"><path d="M16.25-34.95L16.25-34.95Q20.25-34.95 22.7-34.08 25.15-33.2 26.28-31.05 27.4-28.9 27.4-25L27.4-25Q27.4-22.2 26.75-20.33 26.1-18.45 24.73-17.43 23.35-16.4 21.05-16.1L21.05-16.1 21.05-15.85Q21.9-15.65 22.73-15.03 23.55-14.4 24.25-13.38 24.95-12.35 25.3-10.9L25.3-10.9 28.65 0 23.95 0 20.9-10.8Q20.25-12.75 19.15-13.58 18.05-14.4 16.3-14.4L16.3-14.4Q13.25-14.4 11-14.43 8.75-14.45 7.25-14.5 5.75-14.55 4.85-14.55L4.85-14.55 5-18.2 16.15-18.2Q18.7-18.25 20.18-18.8 21.65-19.35 22.3-20.78 22.95-22.2 22.95-24.75L22.95-24.75Q22.95-27.3 22.3-28.68 21.65-30.05 20.18-30.6 18.7-31.15 16.15-31.15L16.15-31.15Q12.05-31.15 9.08-31.1 6.1-31.05 5.05-31.05L5.05-31.05 4.35-34.5Q6.25-34.7 7.9-34.8 9.55-34.9 11.53-34.93 13.5-34.95 16.25-34.95ZM4.35-34.5L8.7-34.5 8.7 0 4.35 0 4.35-34.5ZM42.9-24.95L42.9-24.95Q44.5-24.95 46.3-24.85 48.1-24.75 49.87-24.6 51.65-24.45 53.15-24.2L53.15-24.2 52.8-21.1Q50.5-21.2 48.17-21.28 45.85-21.35 43.55-21.35L43.55-21.35Q41.3-21.4 40-21.25 38.7-21.1 38.12-20.45 37.55-19.8 37.55-18.25L37.55-18.25Q37.55-16.35 38.45-15.75 39.35-15.15 41.1-14.75L41.1-14.75 48.2-13.15Q51.1-12.45 52.47-11 53.85-9.55 53.85-6.45L53.85-6.45Q53.85-3.45 52.72-1.95 51.6-0.45 49.3 0.05 47 0.55 43.45 0.55L43.45 0.55Q42.15 0.55 39.57 0.45 37 0.35 33.9-0.15L33.9-0.15 34.2-3.25Q35.4-3.2 36.75-3.13 38.1-3.05 39.57-3.05 41.05-3.05 42.6-3.05L42.6-3.05Q45.35-3.05 46.9-3.3 48.45-3.55 49.1-4.28 49.75-5 49.75-6.45L49.75-6.45Q49.75-8.25 48.7-8.85 47.65-9.45 45.9-9.85L45.9-9.85 38.9-11.45Q36.9-11.95 35.7-12.78 34.5-13.6 33.95-14.93 33.4-16.25 33.4-18.25L33.4-18.25Q33.4-21.1 34.4-22.55 35.4-24 37.5-24.5 39.6-25 42.9-24.95ZM60.2-24.35L63.5-24.35 64.05-19.7 64.45-18.95 64.45 0 60.2 0 60.2-24.35ZM74.34-24.95L75.45-24.95 74.95-20.95 73.55-20.95Q71.4-20.95 69.25-20.08 67.09-19.2 64-17.6L64-17.6 63.65-20.25Q66.34-22.45 69.07-23.7 71.8-24.95 74.34-24.95L74.34-24.95Z" opacity="1" transform="matrix(1,0,0,1,0,0)" fill="#ffffff" class="wordmark-text-0" data-fill-palette-color="primary" id="text-0"></path></svg></g></svg></g></svg></g></svg></g></svg></g></svg></g></svg></g><g><path d="M0 123.6c0-68.262 55.338-123.6 123.6-123.6 39.865 0 75.323 18.873 97.924 48.172l-7.049 0c-21.663-26.07-54.33-42.669-90.875-42.669-65.223 0-118.097 52.874-118.097 118.097 0 65.223 52.874 118.097 118.097 118.097 36.545 0 69.213-16.599 90.875-42.669h7.049c-22.601 29.299-58.059 48.172-97.924 48.172-68.262 0-123.6-55.338-123.6-123.6z" fill="#ffffff" stroke="transparent" data-fill-palette-color="tertiary"></path></g></svg></g><defs></defs></svg><rect width="395.52" height="247.2" fill="none" stroke="none" visibility="hidden"></rect></g></svg></g></svg>