<svg id="visual" viewBox="0 0 900 600" width="900" height="600" xmlns="http://www.w3.org/2000/svg" xmlns:xlink="http://www.w3.org/1999/xlink" version="1.1"><path d="M0 384L113 407L225 375L338 454L450 421L563 422L675 342L788 375L900 373L900 601L788 601L675 601L563 601L450 601L338 601L225 601L113 601L0 601Z" fill="#5af50a"></path><path d="M0 489L113 399L225 496L338 463L450 402L563 424L675 404L788 485L900 499L900 601L788 601L675 601L563 601L450 601L338 601L225 601L113 601L0 601Z" fill="#1ed654"></path><path d="M0 472L113 482L225 526L338 474L450 459L563 459L675 515L788 453L900 520L900 601L788 601L675 601L563 601L450 601L338 601L225 601L113 601L0 601Z" fill="#00b66d"></path><path d="M0 552L113 549L225 538L338 503L450 524L563 518L675 537L788 536L900 571L900 601L788 601L675 601L563 601L450 601L338 601L225 601L113 601L0 601Z" fill="#009473"></path></svg>